<?xml version="1.0" encoding="UTF-8"?>
<svg xmlns="http://www.w3.org/2000/svg" xmlns:xlink="http://www.w3.org/1999/xlink" version="1.1" id="Capa_1" x="0px" y="0px" viewBox="0 0 512 512" style="enable-background:new 0 0 512 512;" xml:space="preserve" width="512" height="512">
<g>
	<path d="M360.636,270.363l-10.62-1.472c-3.021-11.874-7.709-23.166-13.997-33.713l6.46-8.529c3.018-3.984,2.63-9.584-0.907-13.115&#10;&#9;&#9;l-28.883-28.83c-3.526-3.521-9.109-3.908-13.089-0.904l-8.565,6.465c-10.575-6.284-21.896-10.969-33.799-13.986l-1.474-10.586&#10;&#9;&#9;c-0.688-4.943-4.914-8.622-9.904-8.622h-40.846c-4.99,0-9.217,3.679-9.904,8.621l-1.474,10.587&#10;&#9;&#9;c-11.903,3.017-23.225,7.702-33.799,13.986l-8.566-6.466c-3.98-3.002-9.562-2.618-13.089,0.905l-28.882,28.83&#10;&#9;&#9;c-3.537,3.531-3.925,9.131-0.907,13.115l6.46,8.529c-6.288,10.547-10.977,21.84-13.997,33.713l-10.621,1.472&#10;&#9;&#9;c-4.945,0.686-8.627,4.913-8.627,9.905v40.772c0,4.992,3.682,9.22,8.627,9.905l10.621,1.472&#10;&#9;&#9;c3.021,11.874,7.709,23.166,13.997,33.714l-6.46,8.528c-3.018,3.984-2.63,9.584,0.907,13.116l28.882,28.83&#10;&#9;&#9;c3.527,3.521,9.112,3.907,13.088,0.904l8.567-6.465c10.574,6.284,21.896,10.969,33.799,13.986l1.474,10.587&#10;&#9;&#9;c0.688,4.943,4.914,8.622,9.904,8.622h40.846c4.99,0,9.217-3.679,9.904-8.622l1.474-10.586&#10;&#9;&#9;c11.903-3.017,23.225-7.701,33.799-13.986l8.565,6.465c3.979,3.002,9.562,2.616,13.089-0.904l28.883-28.83&#10;&#9;&#9;c3.537-3.531,3.925-9.131,0.907-13.116l-6.46-8.528c6.288-10.548,10.977-21.84,13.997-33.714l10.62-1.472&#10;&#9;&#9;c4.945-0.686,8.627-4.913,8.627-9.905v-40.772C369.263,275.276,365.581,271.048,360.636,270.363z M349.263,312.331l-8.853,1.228&#10;&#9;&#9;c-4.23,0.586-7.621,3.794-8.44,7.985c-2.775,14.185-8.294,27.476-16.404,39.505c-2.39,3.545-2.262,8.219,0.32,11.628l5.383,7.106&#10;&#9;&#9;l-16.558,16.527l-7.147-5.395c-3.403-2.567-8.06-2.697-11.601-0.319c-12.055,8.098-25.375,13.608-39.591,16.379&#10;&#9;&#9;c-4.192,0.817-7.403,4.207-7.991,8.438l-1.229,8.826h-23.437l-1.229-8.827c-0.589-4.23-3.799-7.62-7.991-8.437&#10;&#9;&#9;c-14.215-2.771-27.535-8.281-39.59-16.379c-3.539-2.376-8.196-2.249-11.6,0.319l-7.149,5.395l-16.557-16.527l5.383-7.106&#10;&#9;&#9;c2.582-3.409,2.71-8.083,0.32-11.628c-8.11-12.029-13.629-25.32-16.404-39.505c-0.819-4.191-4.21-7.399-8.44-7.985l-8.854-1.228&#10;&#9;&#9;v-23.353l8.854-1.228c4.23-0.586,7.621-3.794,8.44-7.985c2.775-14.185,8.294-27.476,16.404-39.504&#10;&#9;&#9;c2.39-3.546,2.262-8.219-0.32-11.628l-5.383-7.107l16.557-16.527l7.148,5.395c3.404,2.567,8.061,2.698,11.601,0.319&#10;&#9;&#9;c12.056-8.098,25.375-13.609,39.59-16.379c4.192-0.817,7.402-4.207,7.991-8.437l1.229-8.827h23.437l1.229,8.826&#10;&#9;&#9;c0.588,4.23,3.799,7.62,7.991,8.438c14.215,2.771,27.535,8.281,39.591,16.379c3.538,2.376,8.197,2.25,11.601-0.319l7.147-5.395&#10;&#9;&#9;l16.558,16.528l-5.383,7.107c-2.582,3.409-2.71,8.082-0.32,11.628c8.11,12.028,13.629,25.319,16.404,39.504&#10;&#9;&#9;c0.819,4.191,4.21,7.399,8.44,7.985l8.853,1.228V312.331z"/>
	<path d="M225.435,213.441c-48.09,0-87.213,39.124-87.213,87.213c0,48.089,39.123,87.213,87.213,87.213s87.213-39.124,87.213-87.213&#10;&#9;&#9;C312.647,252.564,273.524,213.441,225.435,213.441z M225.435,367.867c-37.062,0-67.213-30.151-67.213-67.213&#10;&#9;&#9;s30.151-67.213,67.213-67.213s67.213,30.152,67.213,67.213S262.496,367.867,225.435,367.867z"/>
	<path d="M432.38,0H141.548c-20.718,0-37.573,16.855-37.573,37.573v34.254H79.62c-20.718,0-37.573,16.855-37.573,37.573v365.026&#10;&#9;&#9;C42.047,495.145,58.902,512,79.62,512h290.832c20.718,0,37.573-16.855,37.573-37.573v-34.254h24.354&#10;&#9;&#9;c20.718,0,37.573-16.855,37.573-37.573V37.573C469.953,16.855,453.098,0,432.38,0z M175.901,54.284&#10;&#9;&#9;c0,9.456-7.528,17.189-16.917,17.543H138.15l37.751-37.706V54.284z M141.548,20h20.191l-37.765,37.719V37.573&#10;&#9;&#9;C123.975,27.883,131.858,20,141.548,20z M79.62,91.827h20.192l-37.765,37.719V109.4C62.047,99.71,69.931,91.827,79.62,91.827z&#10;&#9;&#9; M113.975,105.948v20.163c0,9.681-7.891,17.556-17.59,17.556H76.21L113.975,105.948z M388.025,474.427&#10;&#9;&#9;c0,9.69-7.884,17.573-17.573,17.573H79.62c-9.689,0-17.573-7.883-17.573-17.573v-310.76h34.338c20.728,0,37.59-16.848,37.59-37.556&#10;&#9;&#9;V91.84h24.337c0.328,0,0.656-0.004,0.982-0.013h211.158c9.689,0,17.573,7.883,17.573,17.573V474.427z M449.953,402.6&#10;&#9;&#9;c0,9.69-7.884,17.573-17.573,17.573h-24.354V109.4c0-20.718-16.855-37.573-37.573-37.573h-178.91&#10;&#9;&#9;c2.782-5.239,4.359-11.211,4.359-17.543V20H432.38c9.689,0,17.573,7.883,17.573,17.573V402.6z"/>
</g>















</svg>
