<?xml version="1.0" encoding="UTF-8" standalone="no"?>
<!-- Created with Inkscape (http://www.inkscape.org/) -->

<svg
   version="1.1"
   id="svg996"
   xml:space="preserve"
   width="682.66669"
   height="682.66669"
   viewBox="0 0 682.66669 682.66669"
   xmlns="http://www.w3.org/2000/svg"
   xmlns:svg="http://www.w3.org/2000/svg"><defs
     id="defs1000"><clipPath
       clipPathUnits="userSpaceOnUse"
       id="clipPath1020"><path
         d="M 0,512 H 512 V 0 H 0 Z"
         id="path1018" /></clipPath></defs><g
     id="g1002"
     transform="matrix(1.3333333,0,0,-1.3333333,0,682.66667)"><path
       d="M 47.863,54.845 H 112.12 V 202.078 H 47.863 Z"
       style="fill:none;stroke:#000000;stroke-width:20;stroke-linecap:round;stroke-linejoin:round;stroke-miterlimit:10;stroke-dasharray:none;stroke-opacity:1"
       id="path1004" /><path
       d="m 283.646,54.845 h 64.258 v 192.26 h -64.258 z"
       style="fill:none;stroke:#000000;stroke-width:20;stroke-linecap:round;stroke-linejoin:round;stroke-miterlimit:10;stroke-dasharray:none;stroke-opacity:1"
       id="path1006" /><g
       id="g1008"
       transform="translate(230.0117,226.1973)"><path
         d="M 0,0 V 82.525 H -64.257 V -171.353 H 0 v 83.389"
         style="fill:none;stroke:#000000;stroke-width:20;stroke-linecap:round;stroke-linejoin:round;stroke-miterlimit:10;stroke-dasharray:none;stroke-opacity:1"
         id="path1010" /></g><path
       d="m 399.879,54.845 h 64.257 v 283.878 h -64.257 z"
       style="fill:none;stroke:#000000;stroke-width:20;stroke-linecap:round;stroke-linejoin:round;stroke-miterlimit:10;stroke-dasharray:none;stroke-opacity:1"
       id="path1012" /><g
       id="g1014"><g
         id="g1016"
         clip-path="url(#clipPath1020)"><g
           id="g1022"
           transform="translate(220.6123,410.4263)"><path
             d="m 0,0 c 0,-12.553 -10.176,-22.729 -22.729,-22.729 -12.553,0 -22.729,10.176 -22.729,22.729 0,12.553 10.176,22.729 22.729,22.729 C -10.176,22.729 0,12.553 0,0 Z"
             style="fill:none;stroke:#000000;stroke-width:20;stroke-linecap:round;stroke-linejoin:round;stroke-miterlimit:10;stroke-dasharray:none;stroke-opacity:1"
             id="path1024" /></g><g
           id="g1026"
           transform="translate(454.7373,434.4263)"><path
             d="m 0,0 c 0,-12.553 -10.176,-22.729 -22.729,-22.729 -12.553,0 -22.729,10.176 -22.729,22.729 0,12.553 10.176,22.729 22.729,22.729 C -10.176,22.729 0,12.553 0,0 Z"
             style="fill:none;stroke:#000000;stroke-width:20;stroke-linecap:round;stroke-linejoin:round;stroke-miterlimit:10;stroke-dasharray:none;stroke-opacity:1"
             id="path1028" /></g><g
           id="g1030"
           transform="translate(338.5034,335.0586)"><path
             d="m 0,0 c 0,-12.553 -10.176,-22.729 -22.729,-22.729 -12.553,0 -22.729,10.176 -22.729,22.729 0,12.553 10.176,22.729 22.729,22.729 C -10.176,22.729 0,12.553 0,0 Z"
             style="fill:none;stroke:#000000;stroke-width:20;stroke-linecap:round;stroke-linejoin:round;stroke-miterlimit:10;stroke-dasharray:none;stroke-opacity:1"
             id="path1032" /></g><g
           id="g1034"
           transform="translate(102.7207,282.5005)"><path
             d="m 0,0 c 0,-12.553 -10.176,-22.729 -22.729,-22.729 -12.553,0 -22.729,10.176 -22.729,22.729 0,12.553 10.176,22.729 22.729,22.729 C -10.176,22.729 0,12.553 0,0 Z"
             style="fill:none;stroke:#000000;stroke-width:20;stroke-linecap:round;stroke-linejoin:round;stroke-miterlimit:10;stroke-dasharray:none;stroke-opacity:1"
             id="path1036" /></g><g
           id="g1038"
           transform="translate(96.0942,298.541)"><path
             d="M 0,0 86.458,95.105"
             style="fill:none;stroke:#000000;stroke-width:20;stroke-linecap:round;stroke-linejoin:round;stroke-miterlimit:10;stroke-dasharray:none;stroke-opacity:1"
             id="path1040" /></g><g
           id="g1042"
           transform="translate(217.5986,399.123)"><path
             d="M 0,0 78.814,-52.159"
             style="fill:none;stroke:#000000;stroke-width:20;stroke-linecap:round;stroke-linejoin:round;stroke-miterlimit:10;stroke-dasharray:none;stroke-opacity:1"
             id="path1044" /></g><g
           id="g1046"
           transform="translate(335.6445,346.0937)"><path
             d="M 0,0 79.591,72.994"
             style="fill:none;stroke:#000000;stroke-width:20;stroke-linecap:round;stroke-linejoin:round;stroke-miterlimit:10;stroke-dasharray:none;stroke-opacity:1"
             id="path1048" /></g><g
           id="g1050"
           transform="translate(502,54.8447)"><path
             d="M 0,0 H -492"
             style="fill:none;stroke:#000000;stroke-width:20;stroke-linecap:round;stroke-linejoin:round;stroke-miterlimit:10;stroke-dasharray:none;stroke-opacity:1"
             id="path1052" /></g><g
           id="g1054"
           transform="translate(230.0117,183.7837)"><path
             d="M 0,0 V 0"
             style="fill:none;stroke:#000000;stroke-width:20;stroke-linecap:round;stroke-linejoin:round;stroke-miterlimit:10;stroke-dasharray:none;stroke-opacity:1"
             id="path1056" /></g></g></g></g></svg>
