<?xml version="1.0" encoding="UTF-8" standalone="no"?>
<!-- Generator: Adobe Illustrator 26.1.0, SVG Export Plug-In . SVG Version: 6.00 Build 0)  -->

<svg
   version="1.1"
   id="Capa_1"
   x="0px"
   y="0px"
   viewBox="0 0 708.66 708.66"
   style="enable-background:new 0 0 708.66 708.66;"
   xml:space="preserve"
   sodipodi:docname="leolia_splash.svg"
   inkscape:version="1.2.2 (732a01da63, 2022-12-09)"
   xmlns:inkscape="http://www.inkscape.org/namespaces/inkscape"
   xmlns:sodipodi="http://sodipodi.sourceforge.net/DTD/sodipodi-0.dtd"
   xmlns="http://www.w3.org/2000/svg"
   xmlns:svg="http://www.w3.org/2000/svg"><defs
   id="defs45" /><sodipodi:namedview
   id="namedview43"
   pagecolor="#ffffff"
   bordercolor="#000000"
   borderopacity="0.25"
   inkscape:showpageshadow="2"
   inkscape:pageopacity="0.0"
   inkscape:pagecheckerboard="0"
   inkscape:deskcolor="#d1d1d1"
   showgrid="false"
   inkscape:zoom="1.1373579"
   inkscape:cx="354.32999"
   inkscape:cy="354.32999"
   inkscape:window-width="1920"
   inkscape:window-height="1009"
   inkscape:window-x="-8"
   inkscape:window-y="0"
   inkscape:window-maximized="1"
   inkscape:current-layer="g40" />
<style
   type="text/css"
   id="style2">
	.st0{fill:#E6007E;}
	.st1{fill:#5BBEB9;}
</style>
<g
   id="g40">
	<g
   id="g20"
   transform="matrix(1.3185168,0,0,1.3185168,-93.910392,-75.496774)">
		<circle
   cx="517.23999"
   cy="236.34"
   r="16.049999"
   id="circle4" />
		<path
   class="st0"
   d="m 205.09,291.72 c 0,0 -35.23,-9.05 -35.23,35.88 0,44.93 12.61,114.75 -96.33,114.75 0,0 31.68,-25.86 31.68,-64.97 0,-39.11 3.88,-156.13 99.88,-85.66 z"
   id="path6"
   style="fill:#5bbeb9;fill-opacity:1" />
		<g
   id="g14">
			<g
   id="g12">
				<path
   class="st1"
   d="m 484.7,152.73 c 0,0 -21.01,-38.47 -50.1,-40.41 -29.09,-1.94 -41.05,5.82 -60.12,31.36 -19.07,25.54 -34.26,50.43 -71.76,67.88 0,0 30.39,19.72 36.53,18.1 6.14,-1.62 29.09,-11.18 53.01,-50.68 23.91,-39.51 58.18,-50.5 92.44,-26.25 z"
   id="path8" />
				<path
   class="st1"
   d="m 417.79,161.13 c 0,0 -27.48,44.61 -53.98,64.65 -26.51,20.04 -69.18,37.82 -97.62,33.94 l 40.18,45.98 c 0,0 45.56,-31 80.94,-61.93 35.38,-30.93 34.36,-66.8 30.48,-82.64 z"
   id="path10" />
			</g>
		</g>
		<g
   id="g18">
			<path
   d="m 602.36,267.48 c -12.07,-25.43 -83.18,-85.77 -83.18,-85.77 0,0 -5.64,-4.72 0.34,-23.9 5.97,-19.19 27.25,-86 24.66,-89.45 -0.88,-1.17 -2.96,-2 -5.5,-2 -4.93,0 -11.63,3.1 -14.76,12.77 -4.57,14.14 -28.8,80.01 -39.4,80.01 -0.39,0 -0.76,-0.09 -1.11,-0.27 -8.5,-4.43 -18.26,-12.35 -30.92,-12.35 -2.11,0 -4.3,0.22 -6.58,0.71 -15.95,3.45 -22.41,8.62 -22.41,8.62 0,0 9.53,38.92 -7.03,65.82 -0.81,1.32 -1.67,2.63 -2.62,3.89 -0.66,0.88 -1.41,1.81 -2.21,2.77 -0.14,0.16 -0.3,0.34 -0.43,0.5 -0.71,0.83 -1.45,1.68 -2.25,2.57 -0.09,0.1 -0.19,0.2 -0.28,0.3 -0.9,0.98 -1.84,1.98 -2.84,3.02 -0.02,0.02 -0.03,0.03 -0.05,0.05 -1.08,1.11 -2.21,2.25 -3.39,3.42 v 0 c -5.23,5.16 -11.45,10.82 -18.22,16.7 -2.59,2.25 -5.26,4.53 -7.98,6.81 -0.09,0.07 -0.17,0.15 -0.26,0.22 -2.75,2.31 -5.55,4.64 -8.37,6.95 v 0 c -6.46,5.31 -13.03,10.56 -19.35,15.55 v 0 c -4.53,3.57 -8.92,6.99 -13.07,10.19 -0.03,0.02 -0.05,0.04 -0.08,0.06 -1.38,1.07 -2.74,2.11 -4.07,3.13 v 0 c -8.3,6.36 -15.31,11.62 -19.88,15.03 v 0 c -0.25,0.18 -0.47,0.35 -0.7,0.52 -0.25,0.18 -0.5,0.37 -0.73,0.54 -0.28,0.21 -0.55,0.41 -0.8,0.6 -0.28,0.21 -0.53,0.4 -0.78,0.58 -1.71,1.27 -2.68,1.98 -2.68,1.98 l -26.06,-29.97 -22.65,-26.06 c 0,0 -0.05,0 -0.13,0 -0.05,0 -0.11,0 -0.18,0 -0.06,0 -0.12,0 -0.2,0 -0.05,0 -0.08,0 -0.14,0 -0.08,0 -0.2,0 -0.29,0 -0.05,0 -0.09,0 -0.14,0 -0.2,0 -0.42,0.01 -0.67,0.02 -0.03,0 -0.06,0 -0.09,0 -3.18,0.13 -10.15,0.91 -18.07,4.71 -0.03,0.01 -0.05,0.02 -0.08,0.04 -0.66,0.32 -1.33,0.67 -2.01,1.03 -0.05,0.03 -0.1,0.05 -0.15,0.08 v 0 c -6.12,3.33 -12.59,8.55 -18.18,16.72 l -0.01,-0.01 c -0.09,0.14 -0.18,0.3 -0.27,0.43 -0.75,1.12 -1.49,2.3 -2.2,3.53 -0.17,0.3 -0.34,0.59 -0.51,0.9 -0.77,1.36 -1.51,2.79 -2.22,4.3 -0.04,0.08 -0.08,0.16 -0.12,0.25 -1.61,3.42 -3.06,7.22 -4.33,11.41 -0.01,0.04 -0.02,0.07 -0.04,0.1 v 0 c -2.9,9.62 -4.78,21.35 -5.09,35.68 -0.05,2 -0.08,4.04 -0.06,6.16 0.02,2.34 0.13,4.6 0.29,6.82 0.06,0.93 0.14,1.84 0.22,2.75 0.1,1.1 0.22,2.17 0.36,3.24 5.91,49.64 42.75,67.6 67.47,74.06 v 0 c 0,0 0,0 0,0 11.28,2.95 19.98,3.52 22.07,3.62 0.05,0 0.1,0 0.14,0.01 0.14,0.01 0.21,0.01 0.27,0.01 0.08,0 0.13,0 0.13,0 0,0 0.01,0 0.01,0 0.13,0.02 15.19,1.86 36.99,1.86 3.56,0 7.34,-0.07 11.22,-0.18 l 0.01,0.01 c 0.33,-0.01 0.67,-0.03 1,-0.04 1.45,-0.05 2.93,-0.11 4.42,-0.17 0.86,-0.04 1.73,-0.08 2.6,-0.13 1.62,-0.08 3.24,-0.18 4.89,-0.29 0.71,-0.05 1.43,-0.1 2.15,-0.15 1.83,-0.13 3.67,-0.28 5.54,-0.44 0.53,-0.05 1.06,-0.1 1.59,-0.15 2.02,-0.19 4.05,-0.39 6.11,-0.63 0.09,-0.01 0.19,-0.02 0.28,-0.03 v 0 c 9.77,-1.12 19.84,-2.75 29.83,-5.08 l 0.01,0.01 c 0.16,-0.04 0.32,-0.08 0.48,-0.12 1.04,-0.24 2.07,-0.51 3.11,-0.77 1.35,-0.34 2.7,-0.69 4.04,-1.06 1.24,-0.34 2.48,-0.68 3.71,-1.04 0.97,-0.28 1.93,-0.59 2.89,-0.89 2.6,-0.81 5.18,-1.67 7.74,-2.59 0.54,-0.19 1.08,-0.37 1.61,-0.57 l -0.01,-0.01 c 8.29,-3.07 16.27,-6.78 23.68,-11.22 v 0 c 0.03,-0.02 0.06,-0.04 0.09,-0.05 1.05,-0.63 2.08,-1.27 3.1,-1.93 1.84,-1.17 3.66,-2.37 5.41,-3.65 0,0 0.95,-5.39 3.04,-13.34 v 0 c 1.91,-7.27 4.78,-16.68 8.76,-26.14 v 0 c 1.46,-3.46 3.06,-6.91 4.82,-10.27 0.01,-0.02 0.02,-0.05 0.04,-0.07 1.76,-3.35 3.68,-6.6 5.76,-9.65 5,-7.33 10.95,-13.45 17.95,-16.96 1.1,-0.55 2.22,-1.02 3.37,-1.44 0.47,-0.17 0.94,-0.34 1.42,-0.49 0.38,-0.12 0.76,-0.23 1.14,-0.33 0.93,-0.24 1.87,-0.46 2.83,-0.61 0,0 0.09,0.02 0.22,0.04 0.05,0.01 0.06,0.01 0.12,0.02 0.17,0.03 0.38,0.06 0.66,0.11 0.12,0.02 0.24,0.04 0.38,0.06 0.24,0.04 0.51,0.08 0.81,0.13 0.24,0.04 0.48,0.08 0.76,0.12 0.31,0.05 0.65,0.1 1.01,0.15 0.26,0.04 0.51,0.08 0.79,0.12 0.51,0.08 1.05,0.15 1.62,0.24 0.31,0.04 0.63,0.09 0.96,0.14 0.46,0.06 0.93,0.13 1.43,0.2 0.48,0.07 0.98,0.13 1.5,0.2 0.5,0.07 1,0.13 1.53,0.2 0.42,0.06 0.84,0.11 1.28,0.16 0.77,0.1 1.57,0.2 2.39,0.3 0.4,0.05 0.81,0.1 1.23,0.15 0.75,0.09 1.52,0.18 2.31,0.26 0.46,0.05 0.92,0.1 1.4,0.15 0.49,0.05 0.97,0.11 1.47,0.16 v 0 c 8.42,0.87 18.24,1.61 27.63,1.61 13.46,0 25.97,-1.5 31.96,-6.23 16.35,-12.96 28.85,-33.65 16.78,-59.08 z m -352.72,151.9 c -19.25,-9.95 -31.97,-24.86 -38.08,-44.47 L 261,424.35 c -3.72,-1.36 -7.54,-2.99 -11.36,-4.97 z m 79.84,13.53 c -13.45,0 -24.34,-0.72 -30.58,-1.26 l -91.51,-91.51 c 0.25,-11.62 1.59,-21.94 3.96,-30.94 l 123.66,123.66 c -1.86,0.02 -3.73,0.05 -5.53,0.05 z m 34.54,-1.65 -143.47,-143.47 c 1.94,-2.93 4.07,-5.61 6.43,-7.99 3.91,-3.95 8.01,-6.7 11.87,-8.61 L 394.27,426.6 c -10.11,2.18 -20.31,3.68 -30.25,4.66 z M 418.17,419.9 315.26,316.99 c 4.73,-3.52 11.69,-8.75 19.88,-15.03 l 106.99,106.99 c -7.47,4.38 -15.55,7.97 -23.96,10.95 z M 453.24,389.45 352.36,288.57 c 6.33,-4.99 12.88,-10.25 19.34,-15.56 l 90.64,90.64 c -4.03,9.12 -7.01,18.29 -9.1,25.8 z m 20,-45.51 L 388.3,259 c 6.73,-5.85 12.93,-11.51 18.2,-16.71 l 84.54,84.54 c -6.91,3.93 -12.8,10.01 -17.8,17.11 z m 108.71,-21.98 c -2.36,1.86 -9.17,4.98 -28.35,4.98 -11.96,0 -24.77,-1.23 -34.24,-2.39 l -98.69,-98.69 c 15.37,-23.68 11.45,-55.71 9.36,-67.17 3.05,-1.58 8.59,-3.93 17.11,-5.77 1.78,-0.39 3.58,-0.58 5.35,-0.58 8.27,0 15.31,4.17 22.12,8.21 2.11,1.25 4.09,2.43 6.11,3.48 1.18,0.62 2.46,0.93 3.8,0.93 5.15,0 11.93,-2.95 27.3,-38.19 8.23,-18.86 15.44,-39.03 17.64,-45.84 2.43,-7.52 6.99,-8.61 8.84,-8.73 -1.51,8.91 -9.04,35.03 -22.44,77.84 l -1.89,6.04 c -6.61,21.24 -0.53,28.41 1.45,30.07 19.52,16.56 72.23,63.9 81.69,83.83 12.02,25.32 -4.34,43.44 -15.16,51.98 z"
   id="path16" />
		</g>
	</g>
	<g
   id="g38"
   transform="matrix(1.3185168,0,0,1.3185168,-93.910392,-75.496774)">
		<path
   class="st1"
   d="m 167.7,499.78 h 11.95 v 71.68 h 29.87 v 11.95 H 167.7 Z"
   id="path22"
   style="fill:#000000;fill-opacity:1" />
		<path
   class="st1"
   d="m 260.46,499.78 v 11.95 H 230.6 v 23.89 h 23.89 v 11.95 H 230.6 v 23.89 h 29.87 v 11.95 h -41.81 v -83.63 z"
   id="path24"
   style="fill:#000000;fill-opacity:1" />
		<path
   class="st1"
   d="m 305.5,583.41 c -11.55,0 -21.4,-4.08 -29.57,-12.24 -8.17,-8.16 -12.24,-18.02 -12.24,-29.57 0,-11.55 4.08,-21.4 12.24,-29.57 8.16,-8.16 18.02,-12.24 29.57,-12.24 11.55,0 21.4,4.08 29.57,12.24 8.16,8.16 12.25,18.02 12.25,29.57 0,11.55 -4.08,21.41 -12.25,29.57 -8.16,8.16 -18.02,12.24 -29.57,12.24 z m 0,-71.68 c -8.24,0 -15.28,2.92 -21.11,8.75 -5.83,5.83 -8.75,12.87 -8.75,21.11 0,8.24 2.92,15.28 8.75,21.12 5.83,5.83 12.87,8.75 21.11,8.75 8.24,0 15.28,-2.92 21.12,-8.75 5.83,-5.83 8.75,-12.87 8.75,-21.12 0,-8.24 -2.92,-15.28 -8.75,-21.11 -5.83,-5.83 -12.87,-8.75 -21.12,-8.75 z"
   id="path26"
   style="fill:#000000;fill-opacity:1" />
		<path
   class="st1"
   d="m 359.26,499.78 h 11.95 v 71.68 h 29.87 v 11.95 h -41.81 v -83.63 z"
   id="path28"
   style="fill:#000000;fill-opacity:1" />
		<g
   id="g32"
   style="fill:#5bbeb9;fill-opacity:1">
			<path
   class="st0"
   d="m 448.86,499.78 v 11.95 h -11.95 v 59.73 h 11.95 v 11.95 h -35.84 v -11.95 h 11.95 v -59.73 h -11.95 v -11.95 z"
   id="path30"
   style="fill:#5bbeb9;fill-opacity:1" />
		</g>
		<g
   id="g36"
   style="fill:#5bbeb9;fill-opacity:1">
			<path
   class="st0"
   d="m 455.25,583.41 23.89,-83.63 h 5.97 L 509,583.41 h -11.95 c -3.98,-11.95 -8.96,-17.92 -14.93,-17.92 -5.97,0 -10.95,5.97 -14.93,17.92 z m 26.88,-53.76 -8.96,29.87 c 5.97,-3.98 11.95,-3.98 17.92,0 z"
   id="path34"
   style="fill:#5bbeb9;fill-opacity:1" />
		</g>
	</g>
</g>
</svg>
