<?xml version="1.0" encoding="UTF-8" standalone="no"?>
<!-- Created with Inkscape (http://www.inkscape.org/) -->

<svg
   xmlns:dc="http://purl.org/dc/elements/1.1/"
   xmlns:cc="http://creativecommons.org/ns#"
   xmlns:rdf="http://www.w3.org/1999/02/22-rdf-syntax-ns#"
   xmlns:svg="http://www.w3.org/2000/svg"
   xmlns="http://www.w3.org/2000/svg"
   xmlns:sodipodi="http://sodipodi.sourceforge.net/DTD/sodipodi-0.dtd"
   xmlns:inkscape="http://www.inkscape.org/namespaces/inkscape"
   version="1.1"
   id="svg717"
   xml:space="preserve"
   width="682.66669"
   height="682.66669"
   viewBox="0 0 682.66669 682.66669"
   sodipodi:docname="menu-lateral.svg"
   inkscape:version="0.92.4 (5da689c313, 2019-01-14)"><metadata
     id="metadata23"><rdf:RDF><cc:Work
         rdf:about=""><dc:format>image/svg+xml</dc:format><dc:type
           rdf:resource="http://purl.org/dc/dcmitype/StillImage" /></cc:Work></rdf:RDF></metadata><sodipodi:namedview
     pagecolor="#ffffff"
     bordercolor="#666666"
     borderopacity="1"
     objecttolerance="10"
     gridtolerance="10"
     guidetolerance="10"
     inkscape:pageopacity="0"
     inkscape:pageshadow="2"
     inkscape:window-width="3840"
     inkscape:window-height="2054"
     id="namedview21"
     showgrid="false"
     inkscape:zoom="0.34570311"
     inkscape:cx="-971.93224"
     inkscape:cy="341.33334"
     inkscape:window-x="-11"
     inkscape:window-y="-11"
     inkscape:window-maximized="1"
     inkscape:current-layer="svg717" /><defs
     id="defs721"><clipPath
       clipPathUnits="userSpaceOnUse"
       id="clipPath731"><path
         d="M 0,512 H 512 V 0 H 0 Z"
         id="path729" /></clipPath></defs><g
     id="g723"
     transform="matrix(1.3333333,0,0,-1.3333333,2.0130875e-6,682.66667)"><g
       id="g725"><g
         id="g727"
         clip-path="url(#clipPath731)"><g
           id="g733"
           transform="translate(120.8,472.17)"><path
             d="m 0,0 h 124.11 c 3.34,0 6.06,-2.71 6.06,-6.06 v -420.22 c 0,-3.35 -2.72,-6.06 -6.06,-6.06 H -57.72 c -4.47,0 -8.08,-3.62 -8.08,-8.09 v -16.16 c 0,-4.46 3.61,-8.08 8.08,-8.08 h 187.89 c 17.85,0 32.32,14.47 32.32,32.33 V 0 c 0,17.86 -14.47,32.33 -32.32,32.33 H -57.72 c -4.47,0 -8.08,-3.62 -8.08,-8.08 V 8.09 C -65.8,3.62 -62.19,0 -57.72,0 H -35"
             style="fill:none;stroke:#000000;stroke-width:15;stroke-linecap:round;stroke-linejoin:round;stroke-miterlimit:10;stroke-dasharray:none;stroke-opacity:1"
             id="path735"
             inkscape:connector-curvature="0" /></g><g
           id="g737"
           transform="translate(329.4135,378.8584)"><path
             d="m 0,0 -11.429,-11.429 c -3.156,-3.156 -3.156,-8.272 0,-11.428 L 88.572,-122.858 -11.429,-222.859 c -3.156,-3.156 -3.156,-8.273 0,-11.429 L 0,-245.717 c 3.156,-3.156 8.273,-3.156 11.429,0 l 111.429,111.43 c 6.312,6.312 6.312,16.545 0,22.857 L 11.429,0 C 8.273,3.156 3.156,3.156 0,0 Z"
             style="fill:none;stroke:#000000;stroke-width:15;stroke-linecap:round;stroke-linejoin:round;stroke-miterlimit:10;stroke-dasharray:none;stroke-opacity:1"
             id="path739"
             inkscape:connector-curvature="0" /></g><g
           id="g741"
           transform="translate(191.46,365.1)"><path
             d="m 0,0 h 17.08 c 5.58,0 10.1,4.52 10.1,10.1 v 40.41 c 0,5.57 -4.52,10.1 -10.1,10.1 h -143.44 c -5.58,0 -10.11,-4.53 -10.11,-10.1 V 10.1 c 0,-5.58 4.53,-10.1 10.11,-10.1 H -35"
             style="fill:none;stroke:#000000;stroke-width:15;stroke-linecap:round;stroke-linejoin:round;stroke-miterlimit:10;stroke-dasharray:none;stroke-opacity:1"
             id="path743"
             inkscape:connector-curvature="0" /></g><g
           id="g745"
           transform="translate(208.5389,272.1626)"><path
             d="m 0,0 h -143.443 c -5.579,0 -10.102,4.523 -10.102,10.102 v 40.406 c 0,5.579 4.523,10.102 10.102,10.102 H 0 c 5.579,0 10.102,-4.523 10.102,-10.102 V 10.102 C 10.102,4.523 5.579,0 0,0 Z"
             style="fill:none;stroke:#000000;stroke-width:15;stroke-linecap:round;stroke-linejoin:round;stroke-miterlimit:10;stroke-dasharray:none;stroke-opacity:1"
             id="path747"
             inkscape:connector-curvature="0" /></g><g
           id="g749"
           transform="translate(114.83,179.23)"><path
             d="m 0,0 h 93.71 c 5.58,0 10.1,4.52 10.1,10.1 v 40.41 c 0,5.57 -4.52,10.1 -10.1,10.1 H -49.73 c -5.58,0 -10.11,-4.53 -10.11,-10.1 V 10.1 C -59.84,4.52 -55.31,0 -49.73,0 H -35"
             style="fill:none;stroke:#000000;stroke-width:15;stroke-linecap:round;stroke-linejoin:round;stroke-miterlimit:10;stroke-dasharray:none;stroke-opacity:1"
             id="path751"
             inkscape:connector-curvature="0" /></g><g
           id="g753"
           transform="translate(208.5389,86.2927)"><path
             d="m 0,0 h -143.443 c -5.579,0 -10.102,4.523 -10.102,10.102 v 40.406 c 0,5.579 4.523,10.102 10.102,10.102 H 0 c 5.579,0 10.102,-4.523 10.102,-10.102 V 10.102 C 10.102,4.523 5.579,0 0,0 Z"
             style="fill:none;stroke:#000000;stroke-width:15;stroke-linecap:round;stroke-linejoin:round;stroke-miterlimit:10;stroke-dasharray:none;stroke-opacity:1"
             id="path755"
             inkscape:connector-curvature="0" /></g></g></g></g></svg>