<svg version="1.1" id="Capa_1" xmlns="http://www.w3.org/2000/svg" xmlns:xlink="http://www.w3.org/1999/xlink" x="0px" y="0px" viewBox="0 0 512 512" style="enable-background:new 0 0 512 512;" xml:space="preserve">
<g>
	<path style="fill:none;stroke:#000000;stroke-width:15;stroke-linecap:round;stroke-linejoin:round;stroke-miterlimit:10;" d="&#10;&#9;&#9;M183.855,247.984h256.516c17.709,0,32.065-14.356,32.065-32.065V39.565c0-17.709-14.356-32.065-32.065-32.065H183.855&#10;&#9;&#9;c-17.709,0-32.065,14.356-32.065,32.065v176.355C151.79,233.628,166.146,247.984,183.855,247.984z"/>
	<path style="fill:none;stroke:#000000;stroke-width:15;stroke-linecap:round;stroke-linejoin:round;stroke-miterlimit:10;" d="&#10;&#9;&#9;M344.177,280.048v176.355c0,8.854,7.178,16.032,16.032,16.032h16.032c8.854,0,16.032-7.178,16.032-16.032V280.048"/>
	<path style="fill:none;stroke:#000000;stroke-width:15;stroke-linecap:round;stroke-linejoin:round;stroke-miterlimit:10;" d="&#10;&#9;&#9;M280.048,288.065v16.032c0,4.427-3.589,8.016-8.016,8.016h-48.097c-4.427,0-8.016-3.589-8.016-8.016v-16.032&#10;&#9;&#9;c0-4.427,3.589-8.016,8.016-8.016h48.097C276.459,280.048,280.048,283.637,280.048,288.065z"/>
	<path style="fill:none;stroke:#000000;stroke-width:15;stroke-linecap:round;stroke-linejoin:round;stroke-miterlimit:10;" d="&#10;&#9;&#9;M119.726,199.887C88.47,242.042,44.635,311.628,39.854,379.984c-4.471,63.924,43.413,122.019,107.448,124.434&#10;&#9;&#9;c63.959,2.412,116.568-48.722,116.568-112.144c0-15.993-2.279-32.149-6.188-48.097"/>
	<path style="fill:none;stroke:#000000;stroke-width:15;stroke-linecap:round;stroke-linejoin:round;stroke-miterlimit:10;" d="&#10;&#9;&#9;M260.006,364.558c-7.458,4.748-12.101,11.684-25.668,11.684c-20.619,0-20.619-16.032-41.238-16.032&#10;&#9;&#9;c-20.622,0-20.622,16.032-41.244,16.032c-20.64,0-20.64-16.032-41.28-16.032c-20.654,0-20.654,16.032-41.308,16.032&#10;&#9;&#9;c-12.909,0-17.75-6.263-24.607-10.96"/>
	
		<line style="fill:none;stroke:#000000;stroke-width:15;stroke-linecap:round;stroke-linejoin:round;stroke-miterlimit:10;" x1="264.016" y1="280.048" x2="264.016" y2="247.984"/>
	
		<line style="fill:none;stroke:#000000;stroke-width:15;stroke-linecap:round;stroke-linejoin:round;stroke-miterlimit:10;" x1="231.952" y1="280.048" x2="231.952" y2="247.984"/>
	
		<line style="fill:none;stroke:#000000;stroke-width:15;stroke-linecap:round;stroke-linejoin:round;stroke-miterlimit:10;" x1="392.274" y1="400.29" x2="344.177" y2="400.29"/>
	
		<line style="fill:none;stroke:#000000;stroke-width:15;stroke-linecap:round;stroke-linejoin:round;stroke-miterlimit:10;" x1="392.274" y1="280.048" x2="344.177" y2="280.048"/>
	<path style="fill:none;stroke:#000000;stroke-width:15;stroke-linecap:round;stroke-linejoin:round;stroke-miterlimit:10;" d="&#10;&#9;&#9;M336.161,247.984v24.048c0,4.427,3.589,8.016,8.016,8.016h48.097c4.427,0,8.016-3.589,8.016-8.016v-24.048"/>
	<path style="fill:none;stroke:#000000;stroke-width:15;stroke-linecap:round;stroke-linejoin:round;stroke-miterlimit:10;" d="&#10;&#9;&#9;M320.129,95.677h-56.113c-8.854,0-16.032,7.178-16.032,16.032v32.065c0,8.854,7.178,16.032,16.032,16.032h96.194&#10;&#9;&#9;c8.854,0,16.032-7.178,16.032-16.032V111.71c0-8.854-7.178-16.032-16.032-16.032h-8.016"/>
	
		<line style="fill:none;stroke:#000000;stroke-width:15;stroke-linecap:round;stroke-linejoin:round;stroke-miterlimit:10;" x1="344.177" y1="127.742" x2="328.145" y2="127.742"/>
	
		<line style="fill:none;stroke:#000000;stroke-width:15;stroke-linecap:round;stroke-linejoin:round;stroke-miterlimit:10;" x1="296.081" y1="127.742" x2="280.048" y2="127.742"/>
	
		<line style="fill:none;stroke:#000000;stroke-width:15;stroke-linecap:round;stroke-linejoin:round;stroke-miterlimit:10;" x1="440.371" y1="39.565" x2="440.371" y2="39.565"/>
	
		<line style="fill:none;stroke:#000000;stroke-width:15;stroke-linecap:round;stroke-linejoin:round;stroke-miterlimit:10;" x1="183.855" y1="39.565" x2="183.855" y2="39.565"/>
	
		<line style="fill:none;stroke:#000000;stroke-width:15;stroke-linecap:round;stroke-linejoin:round;stroke-miterlimit:10;" x1="440.371" y1="215.919" x2="440.371" y2="215.919"/>
	
		<line style="fill:none;stroke:#000000;stroke-width:15;stroke-linecap:round;stroke-linejoin:round;stroke-miterlimit:10;" x1="183.855" y1="215.919" x2="183.855" y2="215.919"/>
</g>
<g>
</g>
<g>
</g>
<g>
</g>
<g>
</g>
<g>
</g>
<g>
</g>
<g>
</g>
<g>
</g>
<g>
</g>
<g>
</g>
<g>
</g>
<g>
</g>
<g>
</g>
<g>
</g>
<g>
</g>
</svg>